<svg width="75" height="18" viewBox="0 0 75 18" fill="none" xmlns="http://www.w3.org/2000/svg">
<g id="Logo">
<path id="BOOKLY" d="M13.713 14.704C13.0951 14.0994 12.6078 13.3746 12.281 12.5743C11.9542 11.774 11.7949 10.9152 11.813 10.051C11.795 9.18677 11.9544 8.32802 12.2812 7.52775C12.6079 6.72747 13.0952 6.00265 13.713 5.398C14.3154 4.7826 15.0374 4.29708 15.8345 3.97134C16.6316 3.6456 17.487 3.48656 18.348 3.504C19.2104 3.49707 20.0655 3.66182 20.8635 3.98863C21.6616 4.31545 22.3866 4.7978 22.9964 5.4076C23.6062 6.01739 24.0886 6.74243 24.4154 7.54049C24.7422 8.33854 24.9069 9.19365 24.9 10.056C24.9084 10.9186 24.7447 11.7742 24.4183 12.5727C24.092 13.3712 23.6096 14.0966 22.9995 14.7063C22.3893 15.3161 21.6637 15.798 20.865 16.1239C20.0663 16.4497 19.2106 16.613 18.348 16.604C17.4866 16.6211 16.6308 16.4613 15.8335 16.1345C15.0363 15.8077 14.3146 15.3208 13.713 14.704ZM68.213 16.351V11.442L63.913 3.756H66.72L69.456 9.012L72.192 3.756H75L70.68 11.442V16.356L68.213 16.351ZM56.472 16.351V3.756H58.956V13.98H63.762V16.356L56.472 16.351ZM50.886 16.351L46.386 10.451V16.351H43.9V3.756H46.384V9.318L50.704 3.756H53.566L48.904 9.876L53.746 16.356L50.886 16.351ZM0 16.356V3.756H4.968C5.9715 3.72795 6.94753 4.08586 7.695 4.756C8.05436 5.07402 8.33956 5.46702 8.53049 5.90728C8.72142 6.34753 8.81342 6.82432 8.8 7.304C8.81457 7.78794 8.71455 8.26848 8.50809 8.70642C8.30164 9.14435 7.99459 9.52729 7.612 9.824C8.13212 10.0985 8.56387 10.5147 8.85729 11.0243C9.15071 11.534 9.2938 12.1164 9.27 12.704C9.28441 13.1983 9.19035 13.6897 8.99443 14.1438C8.79851 14.5978 8.5055 15.0034 8.136 15.332C7.37201 16.0192 6.37317 16.3865 5.346 16.358L0 16.356ZM29.469 11.704C28.8514 11.0992 28.3642 10.3744 28.0374 9.57415C27.7106 8.77391 27.5512 7.91521 27.569 7.051C27.5512 6.18679 27.7106 5.32809 28.0374 4.52785C28.3642 3.7276 28.8514 3.00276 29.469 2.398C30.7066 1.18102 32.3728 0.499023 34.1085 0.499023C35.8442 0.499023 37.5104 1.18102 38.748 2.398C39.368 3.00135 39.8573 3.72576 40.1856 4.52621C40.5138 5.32666 40.6739 6.18605 40.656 7.051C40.6734 7.91722 40.5131 8.77782 40.185 9.57966C39.8568 10.3815 39.3677 11.1076 38.748 11.713C37.5079 12.9262 35.8415 13.6047 34.1067 13.6031C32.3718 13.6014 30.7068 12.9196 29.469 11.704Z" fill="white"/>
<path id="Path 72" d="M29.83 16.852H38.83" stroke="white" stroke-width="1.5" stroke-miterlimit="10" stroke-linecap="round"/>
</g>
</svg>
